<mxfile host="app.diagrams.net" modified="2023-09-14T07:18:38.211Z" agent="Mozilla/5.0 (Windows NT 10.0; Win64; x64) AppleWebKit/537.36 (KHTML, like Gecko) Chrome/116.0.0.0 Safari/537.36" version="21.6.9" etag="bJW5eOLUnz2KPgtPrv6y" type="github">
  <diagram name="페이지-1" id="EenNv-8wlPI0PqDEsnf6">
    <mxGraphModel>
      <root>
        <mxCell id="0" />
        <mxCell id="1" parent="0" />
      </root>
    </mxGraphModel>
  </diagram>
</mxfile>
